<?xml version="1.0" encoding="UTF-8"?>
<svg width="18px" height="18px" viewBox="0 0 18 18" version="1.1" xmlns="http://www.w3.org/2000/svg" xmlns:xlink="http://www.w3.org/1999/xlink">
    <!-- Generator: Sketch 51.2 (57519) - http://www.bohemiancoding.com/sketch -->
    <title>Shape</title>
    <desc>Created with Sketch.</desc>
    <defs></defs>
    <g id="Symbols" stroke="none" stroke-width="1" fill="none" fill-rule="evenodd">
        <g id="icn/search" transform="translate(-9.000000, -9.000000)" fill="#FFFFFF" fill-rule="nonzero">
            <g id="Shape">
                <path d="M21.864494,20.3207547 L21.051458,20.3207547 L20.7632933,20.0428816 C21.7718696,18.8696398 22.3790738,17.3464837 22.3790738,15.6895369 C22.3790738,11.9948542 19.3842196,9 15.6895369,9 C11.9948542,9 9,11.9948542 9,15.6895369 C9,19.3842196 11.9948542,22.3790738 15.6895369,22.3790738 C17.3464837,22.3790738 18.8696398,21.7718696 20.0428816,20.7632933 L20.3207547,21.051458 L20.3207547,21.864494 L25.4665523,27 L27,25.4665523 L21.864494,20.3207547 Z M15.6895369,20.3207547 C13.1269297,20.3207547 11.058319,18.2521441 11.058319,15.6895369 C11.058319,13.1269297 13.1269297,11.058319 15.6895369,11.058319 C18.2521441,11.058319 20.3207547,13.1269297 20.3207547,15.6895369 C20.3207547,18.2521441 18.2521441,20.3207547 15.6895369,20.3207547 Z"></path>
            </g>
        </g>
    </g>
</svg>