<?xml version="1.0" encoding="UTF-8"?>
<svg width="27px" height="27px" viewBox="0 0 27 27" version="1.1" xmlns="http://www.w3.org/2000/svg" xmlns:xlink="http://www.w3.org/1999/xlink">
    <!-- Generator: Sketch 51.2 (57519) - http://www.bohemiancoding.com/sketch -->
    <title>icn/facebook</title>
    <desc>Created with Sketch.</desc>
    <defs>
        <rect id="path-1" x="0" y="0" width="27" height="27" rx="13.5"></rect>
        <path d="M8.30357304,14.1666667 L8.30357304,7.49921938 L10.1440801,7.49921938 L10.387987,5.20158011 L8.30357304,5.20158011 L8.30670006,4.05158955 C8.30670006,3.45232984 8.36363773,3.1312328 9.22434774,3.1312328 L10.3749578,3.1312328 L10.3749578,0.833333333 L8.53419017,0.833333333 C6.32313221,0.833333333 5.54489714,1.94793557 5.54489714,3.82234604 L5.54489714,5.20184032 L4.16666667,5.20184032 L4.16666667,7.49947958 L5.54489714,7.49947958 L5.54489714,14.1666667 L8.30357304,14.1666667 Z" id="path-3"></path>
    </defs>
    <g id="Page-1" stroke="none" stroke-width="1" fill="none" fill-rule="evenodd">
        <g id="1440-quarks-navigation-topNav-icons" transform="translate(-908.000000, -8.000000)">
            <g id="Top-Bar">
                <g id="icn/facebook" transform="translate(908.000000, 8.000000)">
                    <mask id="mask-2" fill="white">
                        <use xlink:href="#path-1"></use>
                    </mask>
                    <use id="Rectangle-3" fill="#3A5997" xlink:href="#path-1"></use>
                    <g id="icons/social/facebook" mask="url(#mask-2)">
                        <g transform="translate(6.000000, 7.000000)">
                            <mask id="mask-4" fill="white">
                                <use xlink:href="#path-3"></use>
                            </mask>
                            <use id="Mask" stroke="none" fill="#212B36" fill-rule="evenodd" xlink:href="#path-3"></use>
                            <g id="color/white" stroke="none" fill="none" mask="url(#mask-4)" fill-rule="evenodd">
                                <rect id="color/background" fill="#FFFFFF" x="0" y="0" width="15" height="15" rx="4"></rect>
                            </g>
                        </g>
                    </g>
                </g>
            </g>
        </g>
    </g>
</svg>