<?xml version="1.0" encoding="UTF-8"?>
<svg width="16px" height="16px" viewBox="0 0 16 16" version="1.1" xmlns="http://www.w3.org/2000/svg" xmlns:xlink="http://www.w3.org/1999/xlink">
    <!-- Generator: Sketch 51.2 (57519) - http://www.bohemiancoding.com/sketch -->
    <title>Shape</title>
    <desc>Created with Sketch.</desc>
    <defs>
        <path d="M14.260346,11.4273683 C13.4788559,11.4273683 12.7759421,11.7617396 12.2768668,12.2953961 L6.44544446,9.39171595 C6.46549953,9.25529247 6.47930794,9.11719713 6.47930794,8.97508934 C6.47930794,8.83665963 6.46615707,8.70157363 6.44708832,8.56882824 L12.2699626,5.69691334 C12.7693667,6.23491672 13.4755682,6.57263171 14.260346,6.57263171 C15.7733531,6.57263171 17,5.32509247 17,3.78631586 C17,2.24720487 15.7733531,1 14.260346,1 C12.747339,1 11.5206921,2.24720487 11.5206921,3.78631586 C11.5206921,3.92474556 11.5338429,4.05949719 11.5529117,4.19257696 L5.7300374,7.06449186 C5.2306333,6.52648847 4.52476061,6.18877348 3.73965397,6.18877348 C2.22631817,6.18877348 1,7.43631272 1,8.97508934 C1,10.5142003 2.22631817,11.7614052 3.73965397,11.7614052 C4.52114413,11.7614052 5.22405786,11.4270339 5.72313319,10.8933774 L11.5545555,13.7970575 C11.5345005,13.9331466 11.5206921,14.0715764 11.5206921,14.2136841 C11.5206921,15.7527951 12.747339,17 14.260346,17 C15.7733531,17 17,15.7527951 17,14.2136841 C17,12.6745732 15.7733531,11.4273683 14.260346,11.4273683 Z" id="path-1"></path>
    </defs>
    <g id="Symbols" stroke="none" stroke-width="1" fill="none" fill-rule="evenodd">
        <g id="icons/share2" transform="translate(-1.000000, -1.000000)">
            <g id="icons/dark/share">
                <mask id="mask-2" fill="white">
                    <use xlink:href="#path-1"></use>
                </mask>
                <use id="Shape" fill="#FFFFFF" fill-rule="nonzero" xlink:href="#path-1"></use>
            </g>
        </g>
    </g>
</svg>