<?xml version="1.0" standalone="no"?>
<!DOCTYPE svg PUBLIC "-//W3C//DTD SVG 20010904//EN"
 "http://www.w3.org/TR/2001/REC-SVG-20010904/DTD/svg10.dtd">
<svg version="1.0" xmlns="http://www.w3.org/2000/svg"
 width="1080.000000pt" height="1080.000000pt" viewBox="0 0 1080.000000 1080.000000"
 preserveAspectRatio="xMidYMid meet">
<metadata>
Created by potrace 1.11, written by Peter Selinger 2001-2013
</metadata>
<g transform="translate(0.000000,1080.000000) scale(0.100000,-0.100000)"
fill="#000000" stroke="none">
<path d="M0 5400 l0 -5400 5390 0 5390 0 1 768 c1 422 1 1422 1 2222 -1 800
-1 2885 -1 4633 l-1 3177 -5390 0 -5390 0 0 -5400z m5960 3385 c608 -84 1092
-303 1473 -665 393 -373 634 -852 733 -1457 25 -153 30 -580 10 -763 -102
-894 -553 -1600 -1266 -1983 -120 -64 -233 -112 -397 -166 l-142 -48 31 -39
c66 -83 156 -168 227 -215 96 -64 200 -96 356 -111 252 -24 460 26 687 164 20
13 39 21 41 18 11 -12 437 -885 437 -896 0 -18 -126 -94 -250 -152 -175 -82
-365 -138 -571 -167 -137 -19 -475 -20 -641 0 -732 85 -1274 445 -1918 1273
l-105 135 -115 37 c-465 149 -878 426 -1163 780 -308 382 -492 828 -558 1355
-18 145 -16 511 5 668 80 615 316 1115 716 1518 414 416 966 661 1645 729 138
13 629 4 765 -15z"/>
<path d="M5345 7649 c-431 -55 -746 -312 -898 -734 -32 -90 -72 -273 -87 -395
-14 -120 -14 -435 0 -560 61 -548 290 -934 653 -1105 262 -123 647 -138 930
-35 399 146 624 478 708 1045 18 119 18 547 0 675 -73 529 -272 860 -613 1019
-185 87 -447 121 -693 90z"/>
</g>
</svg>
