<?xml version="1.0" encoding="UTF-8"?>
<svg width="19px" height="17px" viewBox="0 0 19 17" version="1.1" xmlns="http://www.w3.org/2000/svg" xmlns:xlink="http://www.w3.org/1999/xlink">
    <!-- Generator: Sketch 51.2 (57519) - http://www.bohemiancoding.com/sketch -->
    <title>Shape</title>
    <desc>Created with Sketch.</desc>
    <defs></defs>
    <g id="Page-1" stroke="none" stroke-width="1" fill="none" fill-rule="evenodd">
        <g id="1440-quarks-navigation-topNav-icons" transform="translate(-1038.000000, -13.000000)" fill="#F5F5F5" fill-rule="nonzero">
            <g id="Top-Bar">
                <g id="fernsehen" transform="translate(1038.000000, 9.000000)">
                    <path d="M17.8125,6.72202787 L11.1229167,6.72202787 L12.6270833,5.22294006 C12.7854167,5.06514134 12.7854167,4.82844326 12.6270833,4.67064455 C12.46875,4.51284583 12.23125,4.51284583 12.0729167,4.67064455 L9.975,6.76147755 L9.89583333,6.76147755 L7.24375,4.11834904 C7.08541667,3.96055032 6.84791667,3.96055032 6.68958333,4.11834904 C6.53125,4.27614775 6.53125,4.51284583 6.68958333,4.67064455 L8.7875,6.76147755 L1.1875,6.76147755 C0.514583333,6.76147755 0,7.27432338 0,7.94496792 L0,19.1486768 C0,19.8193214 0.514583333,20.3321672 1.1875,20.3321672 L2.41458333,20.3321672 L2.41458333,20.9633621 L3.76041667,20.9633621 L3.76041667,20.3321672 L15.2,20.3321672 L15.2,20.9633621 L16.5458333,20.9633621 L16.5458333,20.3321672 L17.8125,20.3321672 C18.4854167,20.3321672 19,19.8193214 19,19.1486768 L19,7.90551824 C19,7.2348737 18.4854167,6.72202787 17.8125,6.72202787 Z M15.1604167,18.7147304 L1.58333333,18.7147304 L1.58333333,8.30001504 L15.1604167,8.30001504 L15.1604167,18.7147304 Z M17.0604167,13.9413192 C16.5458333,13.9413192 16.1104167,13.5073727 16.1104167,12.9945269 C16.1104167,12.481681 16.5458333,12.0477346 17.0604167,12.0477346 C17.575,12.0477346 18.0104167,12.481681 18.0104167,12.9945269 C18.0104167,13.5073727 17.575,13.9413192 17.0604167,13.9413192 Z M17.0604167,10.7853448 C16.5458333,10.7853448 16.1104167,10.3513984 16.1104167,9.83855253 C16.1104167,9.3257067 16.5458333,8.89176022 17.0604167,8.89176022 C17.575,8.89176022 18.0104167,9.3257067 18.0104167,9.83855253 C18.0104167,10.3513984 17.575,10.7853448 17.0604167,10.7853448 Z" id="Shape"></path>
                </g>
            </g>
        </g>
    </g>
</svg>