<svg xmlns="http://www.w3.org/2000/svg" viewBox="0 0 1905.13 618.7"><defs><style>.cls-1{fill:#000;}</style></defs><title>quarks-logo</title><g id="Ebene_2" data-name="Ebene 2"><g id="Ebene_1-2" data-name="Ebene 1"><path class="cls-1 quarks-dark" d="M176.16,483.35C60.15,451.84,0,352.31,0,247.76,0,119.59,85.93,0,255.64,0,426.07,0,509.85,117.44,509.85,243.47c0,106.69-55.86,209.81-173.29,240.6,20.76,28.64,39.38,35.8,70.89,35.8A93.5,93.5,0,0,0,464,501.25l42.25,85.94C492,597.92,454.71,618.7,401,618.7,319.37,618.7,255.64,592.2,176.16,483.35ZM365.91,247.76c0-74.47-26.49-138.92-107.41-138.92-82.34,0-113.85,60.87-113.85,134.63,0,75.18,30.79,141.78,111,141.78C338,385.25,365.91,321.53,365.91,247.76Z"/><path class="cls-1 quarks-dark" d="M507.72,383.92V160.57H625.61V359c0,26.19,9.18,36,32.1,36,22.27,0,39.29-18.34,45.85-26.2V160.57h117.9v210.9c0,51.75,5.23,87.76,10.47,112H716.65c-3.27-8.51-7.2-28.82-7.85-40-19,23.58-51.74,47.82-102.84,47.82C533.26,491.33,507.72,445.48,507.72,383.92Z"/><path class="cls-1 quarks-dark" d="M816.94,397c0-82.52,81.22-116.57,171.6-116.57h9.17V270.6c0-18.33-8.52-28.16-43.23-28.16-38.64,0-68.77,19.64-80.56,27.52l-47.16-69.44c21.61-19,70.08-47.81,142.79-47.81,102.17,0,145.4,34.71,145.4,129v89.73c0,51.75,7.34,87.76,12.58,112H1010.16c-3.28-7.86-5.9-21.61-6.55-31.43-13.76,17-41.92,39.29-85.81,39.29C862.13,491.33,816.94,459.23,816.94,397Zm180.77-1.31V348.55h-9.17c-37.33,0-62.22,11.79-62.22,37.33,0,15.72,11.78,24.9,32.09,24.9S989.85,402.26,997.71,395.7Z"/><path class="cls-1 quarks-dark" d="M1129.1,160.57H1247v38.64c15.06-24.89,40.61-46.5,78.6-46.5,26.85,0,41.91,5.24,51.08,10.48l-27.51,99.55c-7.2-4.58-18.34-9.17-38.64-9.17-32.09,0-52.4,19-63.53,36V483.47H1129.1Z"/><path class="cls-1 quarks-dark" d="M1358.74,11.88h117.9V274.53l83.18-114h125.75L1576.85,306l108.72,177.5H1551.3l-74.66-129.68V483.47h-117.9Z"/><path class="cls-1 quarks-dark" d="M1643.14,460.55l36-79.91c13.11,9.17,46.52,26.86,79.26,26.86,28.82,0,43.23-4.6,43.23-16.38,0-15.72-44.54-16.38-89.73-40-40-21-59-47.15-59-91.69,0-68.12,55-106.76,134.28-106.76,57,0,91.69,13.1,109.37,22.26l-36,78.6c-13.1-7.2-39.3-17-66.8-17-28.16,0-37.33,6.56-37.33,16.37,0,15.08,32.09,16.39,69.43,30.79,49.76,19.65,79.24,43.23,79.24,97.59,0,74.67-51.74,110-138.19,110C1701.44,491.33,1662.8,473.64,1643.14,460.55Z"/></g></g></svg>