<?xml version="1.0" encoding="UTF-8"?>
<svg width="18px" height="17px" viewBox="0 0 18 17" version="1.1" xmlns="http://www.w3.org/2000/svg" xmlns:xlink="http://www.w3.org/1999/xlink">
    <!-- Generator: Sketch 51.2 (57519) - http://www.bohemiancoding.com/sketch -->
    <title>Shape</title>
    <desc>Created with Sketch.</desc>
    <defs></defs>
    <g id="Page-1" stroke="none" stroke-width="1" fill="none" fill-rule="evenodd">
        <g id="1440-quarks-navigation-topNav-icons" transform="translate(-1225.000000, -12.000000)" fill="#FFFFFF" fill-rule="nonzero">
            <g id="Top-Bar">
                <g id="radio" transform="translate(1223.000000, 9.000000)">
                    <g id="Group" transform="translate(2.000000, 3.000000)">
                        <path d="M16.5,0 C15.67158,0 15,0.701034986 15,1.56578886 C15,2.43054272 15.67158,3.13157771 16.5,3.13157771 C17.32842,3.13157771 18,2.43054272 18,1.56578886 C18,0.701034986 17.32842,0 16.5,0 Z M14.15625,1.76151246 L1.640625,4.92105516 L5.30357143,4.92105516 L14.3772321,2.62828844 C14.2548036,2.36217815 14.1796061,2.07018313 14.15625,1.76151246 Z M0.642857143,5.81579165 C0.286735714,5.81579165 0,6.11510338 0,6.48684402 L0,16.3289476 C0,16.7055422 0.314293093,17 0.642857143,17 L17.3571429,17 C17.7132643,17 18,16.7006883 18,16.3289476 L18,6.48684402 C18,6.11510338 17.7132643,5.81579165 17.3571429,5.81579165 L0.642857143,5.81579165 Z M5.14285714,7.60526463 C7.15474243,7.60526463 8.78571429,9.30777146 8.78571429,11.4078969 C8.78571471,13.5080448 7.15474264,15.210527 5.14285714,15.210527 C3.13096329,15.210527 1.50000021,13.5080448 1.5,11.4078969 C1.5,9.30777146 3.13096329,7.60526463 5.14285714,7.60526463 Z M10.9285714,8.05263511 L16.0714286,8.05263511 C16.3088571,8.05263511 16.5,8.25216135 16.5,8.50000336 C16.5,8.74784536 16.3088571,8.9473716 16.0714286,8.9473716 L10.9285714,8.9473716 C10.6911429,8.9473716 10.5,8.74784536 10.5,8.50000336 C10.5,8.25216135 10.6911429,8.05263511 10.9285714,8.05263511 Z M10.9285714,10.9605287 L16.0714286,10.9605287 C16.3088571,10.9605287 16.5,11.1600549 16.5,11.4078969 C16.5,11.655739 16.3088571,11.8552652 16.0714286,11.8552652 L10.9285714,11.8552652 C10.6911429,11.8552652 10.5,11.655739 10.5,11.4078969 C10.5,11.1600549 10.6911429,10.9605287 10.9285714,10.9605287 Z M10.9285714,13.8684223 L16.0714286,13.8684223 C16.3088571,13.8684223 16.5,14.0679485 16.5,14.3157905 C16.5,14.5636325 16.3088571,14.7631588 16.0714286,14.7631588 L10.9285714,14.7631588 C10.6911429,14.7631588 10.5,14.5636325 10.5,14.3157905 C10.5,14.0679485 10.6911429,13.8684223 10.9285714,13.8684223 Z" id="Shape"></path>
                    </g>
                </g>
            </g>
        </g>
    </g>
</svg>