<?xml version="1.0" encoding="UTF-8"?>
<svg width="28px" height="28px" viewBox="0 0 28 28" version="1.1" xmlns="http://www.w3.org/2000/svg" xmlns:xlink="http://www.w3.org/1999/xlink">
    <!-- Generator: Sketch 51.2 (57519) - http://www.bohemiancoding.com/sketch -->
    <title>icons/social/facebook</title>
    <desc>Created with Sketch.</desc>
    <defs>
        <path d="M13.5411081,1.67073279 C13.9741505,1.6700551 14.4573417,1.67073279 15.0001694,1.67073279 C19.3427913,1.67073279 19.857495,1.68631961 21.5723834,1.76425368 C23.1581723,1.83676624 24.0188355,2.10174208 24.5921592,2.32436244 C25.3511692,2.61915653 25.8923027,2.97155406 26.4612214,3.54081162 C27.030479,4.11006917 27.3828765,4.65221921 27.6783483,5.41122928 C27.9009687,5.98387527 28.1662833,6.84453847 28.2384571,8.43032737 C28.3163911,10.1448769 28.3333333,10.6599194 28.3333333,15.0005083 C28.3333333,19.3410971 28.3163911,19.8561396 28.2384571,21.5706892 C28.1659445,23.1564781 27.9009687,24.0171413 27.6783483,24.5897872 C27.3835542,25.3487973 27.030479,25.8892531 26.4612214,26.4581719 C25.8919639,27.0274294 25.3515081,27.3798269 24.5921592,27.674621 C24.0195132,27.8982579 23.1581723,28.1625561 21.5723834,28.2350686 C19.8578339,28.3130027 19.3427913,28.3299449 15.0001694,28.3299449 C10.6572087,28.3299449 10.142505,28.3130027 8.42795546,28.2350686 C6.84216657,28.1618784 5.98150337,27.8969025 5.40784085,27.6742822 C4.64883078,27.3794881 4.10668073,27.0270906 3.53742318,26.457833 C2.96816563,25.8885755 2.6157681,25.3477808 2.32029632,24.5884319 C2.09767596,24.0157859 1.83236128,23.1551227 1.76018755,21.5693338 C1.68225348,19.8547843 1.66666667,19.3397417 1.66666667,14.9964421 C1.66666667,10.6531426 1.68225348,10.1408108 1.76018755,8.42626124 C1.83270012,6.84047235 2.09767596,5.97980915 2.32029632,5.40648547 C2.61509041,4.6474754 2.96816563,4.10532535 3.53742318,3.5360678 C4.10668073,2.96681025 4.64883078,2.61441272 5.40784085,2.31894094 C5.98116452,2.09530405 6.84216657,1.8310059 8.42795546,1.75815449 C9.92835572,1.69038573 10.5098116,1.6700551 13.5411081,1.66666667 L13.5411081,1.67073279 Z M23.6820248,4.37131772 C22.6045015,4.37131772 21.7302846,5.24451814 21.7302846,6.32238021 C21.7302846,7.39990343 22.6045015,8.27412038 23.6820248,8.27412038 C24.759548,8.27412038 25.6337649,7.39990343 25.6337649,6.32238021 C25.6337649,5.24485699 24.759548,4.37064003 23.6820248,4.37064003 L23.6820248,4.37131772 Z M15.0001694,6.65173636 C10.387489,6.65173636 6.64767024,10.3915552 6.64767024,15.0042355 C6.64767024,19.6169159 10.387489,23.3550405 15.0001694,23.3550405 C19.6128498,23.3550405 23.3513132,19.6169159 23.3513132,15.0042355 C23.3513132,10.3915552 19.612511,6.65173636 14.9998306,6.65173636 L15.0001694,6.65173636 Z M15.0001694,9.58273506 C17.9941931,9.58273506 20.4216699,12.0098731 20.4216699,15.0042355 C20.4216699,17.9982592 17.9941931,20.425736 15.0001694,20.425736 C12.0058069,20.425736 9.57866894,17.9982592 9.57866894,15.0042355 C9.57866894,12.0098731 12.0058069,9.58273506 15.0001694,9.58273506 Z" id="path-1"></path>
    </defs>
    <g id="Symbols" stroke="none" stroke-width="1" fill="none" fill-rule="evenodd">
        <g id="Footer/desktop" transform="translate(-1045.000000, -463.000000)">
            <g id="FOOTER">
                <g>
                    <g id="social" transform="translate(1044.000000, 402.000000)">
                        <g id="Group-15" transform="translate(0.000000, 60.000000)">
                            <g id="icons/social/instagram">
                                <mask id="mask-2" fill="white">
                                    <use xlink:href="#path-1"></use>
                                </mask>
                                <use id="Mask" fill="#212B36" fill-rule="evenodd" xlink:href="#path-1"></use>
                                <g id="color/white" mask="url(#mask-2)" fill="#FFFFFF" fill-rule="evenodd">
                                    <rect id="color/background" x="0" y="0" width="30" height="30" rx="6.66666667"></rect>
                                </g>
                            </g>
                        </g>
                    </g>
                </g>
            </g>
        </g>
    </g>
</svg>