<?xml version="1.0" encoding="UTF-8"?>
<svg width="28px" height="20px" viewBox="0 0 28 20" version="1.1" xmlns="http://www.w3.org/2000/svg" xmlns:xlink="http://www.w3.org/1999/xlink">
    <!-- Generator: Sketch 51.2 (57519) - http://www.bohemiancoding.com/sketch -->
    <title>icons/social/facebook</title>
    <desc>Created with Sketch.</desc>
    <defs>
        <path d="M28.0666667,9.13445447 C28.0666667,9.13445447 28.3333333,11.3400646 28.3333333,13.5448231 L28.3333333,15.6124761 C28.3333333,17.8180862 28.0666667,20.0228447 28.0666667,20.0228447 C28.0666667,20.0228447 27.8058333,21.9005939 27.0066667,22.7274848 C25.9925,23.8132581 24.8558333,23.8183676 24.335,23.8822366 C20.6033333,24.1581508 15,24.1666667 15,24.1666667 C15,24.1666667 8.06666667,24.1019461 5.93333333,23.8924557 C5.34,23.7791946 4.0075,23.8132581 2.9925,22.7274848 C2.19333333,21.9005939 1.93333333,20.0228447 1.93333333,20.0228447 C1.93333333,20.0228447 1.66666667,17.8180862 1.66666667,15.6124761 L1.66666667,13.5448231 C1.66666667,11.3400646 1.93333333,9.13445447 1.93333333,9.13445447 C1.93333333,9.13445447 2.19333333,7.25670532 2.9925,6.42981443 C4.0075,5.34404111 5.14333333,5.33893159 5.665,5.27591416 C9.39666667,5 14.9941667,5 14.9941667,5 L15.0058333,5 C15.0058333,5 20.6033333,5 24.335,5.27591416 C24.8558333,5.33893159 25.9925,5.34404111 27.0066667,6.42981443 C27.8058333,7.25670532 28.0666667,9.13445447 28.0666667,9.13445447 Z M12.2466667,18.1178448 L19.4508333,14.3027354 L12.2458333,10.4612269 L12.2466667,18.1178448 Z" id="path-1"></path>
    </defs>
    <g id="Symbols" stroke="none" stroke-width="1" fill="none" fill-rule="evenodd">
        <g id="Footer/desktop" transform="translate(-1265.000000, -467.000000)">
            <g id="FOOTER">
                <g>
                    <g id="social" transform="translate(1044.000000, 402.000000)">
                        <g id="Group-15" transform="translate(0.000000, 60.000000)">
                            <g id="icons/social/youtube" transform="translate(220.000000, 0.000000)">
                                <mask id="mask-2" fill="white">
                                    <use xlink:href="#path-1"></use>
                                </mask>
                                <use id="Mask" fill="#212B36" fill-rule="evenodd" xlink:href="#path-1"></use>
                                <g id="color/white" mask="url(#mask-2)" fill="#FFFFFF" fill-rule="evenodd">
                                    <rect id="color/background" x="0" y="0" width="30" height="30" rx="6.66666667"></rect>
                                </g>
                            </g>
                        </g>
                    </g>
                </g>
            </g>
        </g>
    </g>
</svg>