<?xml version="1.0" encoding="UTF-8"?>
<svg width="16px" height="16px" viewBox="0 0 16 16" version="1.1" xmlns="http://www.w3.org/2000/svg" xmlns:xlink="http://www.w3.org/1999/xlink">
    <!-- Generator: Sketch 51.2 (57519) - http://www.bohemiancoding.com/sketch -->
    <title>icons/dark/external-link</title>
    <desc>Created with Sketch.</desc>
    <defs>
        <path d="M0,0 L0,16 L16,16 L16,12 L14,12 L14,14 L2,14 L2,2 L4,2 L4,0 L0,0 Z M8,0 L11,3 L6,8 L8,10 L13,5 L16,8 L16,0 L8,0 Z" id="path-1"></path>
    </defs>
    <g id="Artikel" stroke="none" stroke-width="1" fill="none" fill-rule="evenodd">
        <g id="1440-quarks-artikel-maximal" transform="translate(-384.000000, -9950.000000)">
            <g id="QUELLEN" transform="translate(170.000000, 9518.000000)">
                <g id="Linkliste" transform="translate(213.000000, 70.000000)">
                    <g id="Group-21" transform="translate(0.000000, 66.000000)">
                        <g id="Group-18" transform="translate(0.000000, 255.000000)">
                            <g id="icons/external-link" transform="translate(0.000000, 40.000000)">
                                <g id="icons/dark/external-link" transform="translate(1.000000, 1.000000)">
                                    <mask id="mask-2" fill="white">
                                        <use xlink:href="#path-1"></use>
                                    </mask>
                                    <use id="Mask" fill="#212B36" fill-rule="nonzero" xlink:href="#path-1"></use>
                                    <g id="color/main" mask="url(#mask-2)" fill="#3E3E3E">
                                        <g transform="translate(-1.000000, -1.000000)">
                                            <rect x="0" y="0" width="18" height="18" rx="4"></rect>
                                        </g>
                                    </g>
                                </g>
                            </g>
                        </g>
                    </g>
                </g>
            </g>
        </g>
    </g>
</svg>